<svg width="1320" height="404" viewBox="0 0 1320 404" fill="none" xmlns="http://www.w3.org/2000/svg">
<g clip-path="url(#clip0_482_12754)">
<g clip-path="url(#clip1_482_12754)">
<rect width="1920" height="934" fill="#FAF9F4"/>
<path d="M674.155 538.031C659.839 693.5 301.487 731.453 124.1 730.996C-246.234 688.928 -106.97 403.597 -166.877 345.067C-291.359 204.231 -348.932 81.6843 -29.1689 -156.092C290.594 -393.868 485.875 -189.929 839.093 -183.527C1192.31 -177.126 1231.99 -11.1398 1263.11 42.3598C1294.23 95.8594 1247.55 224.807 1060.83 224.807C616.582 227.094 674.155 487.275 674.155 538.031Z" fill="url(#paint0_linear_482_12754)"/>
<path d="M385.758 453.98C170.442 517.038 186.19 801.767 220.978 936.25C351.276 1203.21 724.693 1001.72 818.323 1027.54C1039.83 1074.74 1222.81 1077.3 1494.77 754.775C1766.74 432.253 1443.09 352.5 1366.12 86.5581C1289.14 -179.383 1048.68 -153.776 967.646 -159.436C886.613 -165.096 714.728 -86.3764 750.673 55.3454C832.984 393.293 456.951 436.941 385.758 453.98Z" fill="url(#paint1_linear_482_12754)"/>
</g>
</g>
<defs>
<linearGradient id="paint0_linear_482_12754" x1="-5.36578" y1="36.2798" x2="442.856" y2="674.779" gradientUnits="userSpaceOnUse">
<stop stop-color="#B6FCFF"/>
<stop offset="1" stop-color="#C8F8FB" stop-opacity="0"/>
</linearGradient>
<linearGradient id="paint1_linear_482_12754" x1="1361.88" y1="759.678" x2="540.159" y2="14.0158" gradientUnits="userSpaceOnUse">
<stop stop-color="#F9F3BF"/>
<stop offset="1" stop-color="#FAF2C0" stop-opacity="0"/>
</linearGradient>
<clipPath id="clip0_482_12754">
<rect width="1320" height="404" fill="white"/>
</clipPath>
<clipPath id="clip1_482_12754">
<rect width="1920" height="934" fill="white"/>
</clipPath>
</defs>
</svg>
