<svg width="1920" height="934" viewBox="0 0 1920 934" fill="none" xmlns="http://www.w3.org/2000/svg">
<path d="M383.203 542.648C374.003 712.648 143.703 754.148 29.7026 753.648C-208.297 707.648 -118.797 395.648 -157.297 331.648C-237.297 177.648 -274.297 43.6483 -68.7974 -216.352C136.703 -476.352 262.203 -253.352 489.203 -246.352C716.203 -239.352 741.703 -57.8517 761.703 0.648285C781.703 59.1483 751.703 200.148 631.703 200.148C346.203 202.648 383.203 487.148 383.203 542.648Z" fill="url(#paint0_linear_482_10130)"/>
<path d="M1250.43 648.051C1086.06 698.064 1100.74 932.692 1128.62 1043.75C1230.88 1264.77 1515.09 1102.16 1587.05 1124.26C1757.18 1165.1 1897.37 1168.84 2102.75 905.647C2308.13 642.457 2059.47 573.894 1998.06 354.193C1936.66 134.492 1752.69 153.439 1690.56 148.056C1628.43 142.673 1497.48 205.971 1526.32 323.006C1592.47 602.055 1304.81 634.652 1250.43 648.051Z" fill="url(#paint1_linear_482_10130)"/>
<g style="mix-blend-mode:overlay">
<path d="M239.636 5904.24C738.587 6070.93 1314.09 5842.88 1841.16 5339.68C2368.25 4836.46 2847.02 4057.98 3152.56 3123.53C3458.09 2189.08 3532.56 1275.54 3405.95 553.929C3279.35 -167.657 2951.64 -697.456 2452.69 -864.148C1953.73 -1030.84 1378.23 -802.789 851.158 -299.587C324.067 203.632 -154.698 982.107 -460.234 1916.56C-765.77 2851.01 -840.242 3764.55 -713.631 4486.16C-587.024 5207.75 -259.315 5737.55 239.636 5904.24Z" stroke="url(#paint2_linear_482_10130)" stroke-linecap="round" stroke-linejoin="round"/>
<path d="M316.443 5669.33C780.785 5824.46 1316.36 5612.23 1806.85 5143.97C2297.36 4675.68 2742.9 3951.24 3027.22 3081.66C3311.55 2212.08 3380.85 1361.95 3263.02 690.429C3145.19 18.9298 2840.22 -474.109 2375.88 -629.238C1911.54 -784.367 1375.96 -572.141 885.469 -103.872C394.958 364.413 -50.577 1088.85 -334.903 1958.43C-619.229 2828.01 -688.526 3678.14 -570.697 4349.66C-452.871 5021.16 -147.898 5514.2 316.443 5669.33Z" stroke="url(#paint3_linear_482_10130)" stroke-linecap="round" stroke-linejoin="round"/>
<path d="M393.255 5434.42C822.987 5577.99 1318.63 5381.59 1772.54 4948.25C2226.47 4514.9 2638.78 3844.5 2901.89 3039.79C3165.01 2235.08 3229.13 1448.36 3120.09 826.927C3011.04 205.516 2728.8 -250.762 2299.07 -394.328C1869.34 -537.895 1373.7 -341.495 919.784 91.8414C465.854 525.194 53.5485 1195.59 -209.567 2000.3C-472.683 2805.01 -536.808 3591.73 -427.759 4213.17C-318.714 4834.58 -36.4772 5290.85 393.255 5434.42Z" stroke="url(#paint4_linear_482_10130)" stroke-linecap="round" stroke-linejoin="round"/>
<path d="M470.06 5199.51C74.938 5067.51 -184.563 4647.99 -284.827 4076.67C-385.094 3505.32 -326.144 2782.02 -84.2377 2042.17C157.668 1302.33 536.743 685.975 954.094 287.555C1371.43 -110.848 1827.14 -291.423 2222.26 -159.419C2617.38 -27.4144 2876.89 392.102 2977.15 963.426C3077.42 1534.77 3018.47 2258.07 2776.56 2997.92C2534.65 3737.77 2155.58 4354.12 1738.23 4752.54C1320.9 5150.94 865.183 5331.52 470.06 5199.51Z" stroke="url(#paint5_linear_482_10130)" stroke-linecap="round" stroke-linejoin="round"/>
<path d="M546.87 4964.6C186.357 4844.16 -50.4088 4461.41 -141.891 3940.17C-233.377 3418.91 -179.601 2759.02 41.0954 2084.05C261.792 1409.07 607.636 846.756 988.407 483.269C1369.16 119.799 1784.94 -44.9501 2145.46 75.4915C2505.97 195.933 2742.73 578.689 2834.22 1099.92C2925.7 1621.18 2871.93 2281.07 2651.23 2956.05C2430.53 3631.03 2084.69 4193.34 1703.92 4556.82C1323.16 4920.29 907.383 5085.04 546.87 4964.6Z" stroke="url(#paint6_linear_482_10130)" stroke-linecap="round" stroke-linejoin="round"/>
<path d="M623.677 4729.69C297.774 4620.81 83.7442 4274.82 1.04316 3803.67C-81.662 3332.5 -33.0593 2736.02 166.427 2125.92C365.913 1515.81 678.527 1007.54 1022.72 678.983C1366.89 350.446 1742.74 201.521 2068.65 310.4C2394.55 419.28 2608.58 765.274 2691.28 1236.42C2773.99 1707.6 2725.38 2304.07 2525.9 2914.18C2326.41 3524.29 2013.8 4032.56 1669.61 4361.11C1325.43 4689.65 949.581 4838.57 623.677 4729.69Z" stroke="url(#paint7_linear_482_10130)" stroke-linecap="round" stroke-linejoin="round"/>
<path d="M700.485 4494.78C409.191 4397.47 217.897 4088.23 143.978 3667.17C70.0535 3246.09 113.482 2713.03 291.759 2167.79C470.035 1622.55 749.419 1168.32 1057.03 874.698C1364.62 581.094 1700.54 447.995 1991.84 545.311C2283.13 642.628 2474.43 951.862 2548.35 1372.92C2622.27 1794.01 2578.84 2327.07 2400.56 2872.31C2222.29 3417.55 1942.9 3871.78 1635.29 4165.4C1327.7 4459 991.779 4592.1 700.485 4494.78Z" stroke="url(#paint8_linear_482_10130)" stroke-linecap="round" stroke-linejoin="round"/>
<path d="M777.294 4259.87C520.61 4174.12 352.052 3901.65 286.913 3530.67C221.77 3159.68 260.026 2690.03 417.092 2209.66C574.158 1729.29 820.312 1329.1 1091.34 1070.41C1362.35 811.74 1658.35 694.466 1915.03 780.22C2171.72 865.974 2340.27 1138.45 2405.41 1509.42C2470.56 1880.42 2432.3 2350.06 2275.23 2830.43C2118.17 3310.81 1872.01 3711 1600.98 3969.68C1329.97 4228.35 1033.98 4345.63 777.294 4259.87Z" stroke="url(#paint9_linear_482_10130)" stroke-linecap="round" stroke-linejoin="round"/>
<path d="M854.102 4024.97C632.027 3950.77 486.205 3715.06 429.847 3394.18C373.486 3073.27 406.567 2667.03 542.424 2251.53C678.28 1836.03 891.203 1489.88 1125.65 1266.12C1360.09 1042.39 1616.15 940.938 1838.22 1015.13C2060.3 1089.32 2206.12 1325.03 2262.48 1645.92C2318.84 1966.83 2285.76 2373.06 2149.9 2788.56C2014.04 3204.07 1801.12 3550.22 1566.67 3773.97C1332.24 3997.71 1076.18 4099.16 854.102 4024.97Z" stroke="url(#paint10_linear_482_10130)" stroke-linecap="round" stroke-linejoin="round"/>
</g>
<defs>
<linearGradient id="paint0_linear_482_10130" x1="-53.5" y1="-6.00001" x2="459.5" y2="423.5" gradientUnits="userSpaceOnUse">
<stop stop-color="#B6FCFF"/>
<stop offset="1" stop-color="#C8F8FB" stop-opacity="0"/>
</linearGradient>
<linearGradient id="paint1_linear_482_10130" x1="2000.99" y1="908.501" x2="1322.24" y2="337.531" gradientUnits="userSpaceOnUse">
<stop stop-color="#F9F3BF"/>
<stop offset="1" stop-color="#FAF2C0" stop-opacity="0"/>
</linearGradient>
<linearGradient id="paint2_linear_482_10130" x1="2452.53" y1="-863.673" x2="196.472" y2="5889.29" gradientUnits="userSpaceOnUse">
<stop stop-color="white"/>
<stop offset="1" stop-color="white" stop-opacity="0"/>
</linearGradient>
<linearGradient id="paint3_linear_482_10130" x1="2375.72" y1="-628.763" x2="276.287" y2="5655.39" gradientUnits="userSpaceOnUse">
<stop stop-color="white"/>
<stop offset="1" stop-color="white" stop-opacity="0"/>
</linearGradient>
<linearGradient id="paint4_linear_482_10130" x1="489.363" y1="357.134" x2="2658.56" y2="16.152" gradientUnits="userSpaceOnUse">
<stop stop-color="white"/>
<stop offset="0.753894" stop-color="white" stop-opacity="0"/>
</linearGradient>
<linearGradient id="paint5_linear_482_10130" x1="456.115" y1="552.217" x2="2589.04" y2="210.085" gradientUnits="userSpaceOnUse">
<stop stop-color="white"/>
<stop offset="0.729714" stop-color="white" stop-opacity="0"/>
</linearGradient>
<linearGradient id="paint6_linear_482_10130" x1="1064.53" y1="1046.07" x2="2564.05" y2="304.934" gradientUnits="userSpaceOnUse">
<stop stop-color="white"/>
<stop offset="1" stop-color="white" stop-opacity="0"/>
</linearGradient>
<linearGradient id="paint7_linear_482_10130" x1="1243.63" y1="1139.33" x2="2329.72" y2="680.722" gradientUnits="userSpaceOnUse">
<stop stop-color="white"/>
<stop offset="1" stop-color="white" stop-opacity="0"/>
</linearGradient>
<linearGradient id="paint8_linear_482_10130" x1="1991.68" y1="545.787" x2="675.365" y2="4485.87" gradientUnits="userSpaceOnUse">
<stop stop-color="white"/>
<stop offset="1" stop-color="white" stop-opacity="0"/>
</linearGradient>
<linearGradient id="paint9_linear_482_10130" x1="1914.88" y1="780.695" x2="755.182" y2="4251.96" gradientUnits="userSpaceOnUse">
<stop stop-color="white"/>
<stop offset="1" stop-color="white" stop-opacity="0"/>
</linearGradient>
<linearGradient id="paint10_linear_482_10130" x1="1838.07" y1="1015.61" x2="834.997" y2="4018.06" gradientUnits="userSpaceOnUse">
<stop stop-color="white"/>
<stop offset="1" stop-color="white" stop-opacity="0"/>
</linearGradient>
</defs>
</svg>
